{
  "accessors": [
    {
      "bufferView": 2,
      "componentType": 5126,
      "count": 54487,
      "max": [
        1.0812493562698364,
        1.6624565124511719,
        1.0813626050949097
      ],
      "min": [
        -1.0813047885894775,
        -1.9871330261230469,
        -1.0810770988464355
      ],
      "type": "VEC3"
    },
    {
      "bufferView": 2,
      "byteOffset": 653844,
      "componentType": 5126,
      "count": 54487,
      "max": [
        1.0,
        1.0,
        1.0
      ],
      "min": [
        -1.0,
        -0.9997576475143433,
        -1.0
      ],
      "type": "VEC3"
    },
    {
      "bufferView": 1,
      "componentType": 5126,
      "count": 54487,
      "max": [
        1.0000001192092896,
        1.0000001192092896
      ],
      "min": [
        0.007999375462532043,
        0.01000000536441803
      ],
      "type": "VEC2"
    },
    {
      "bufferView": 0,
      "componentType": 5125,
      "count": 245172,
      "type": "SCALAR"
    },
    {
      "bufferView": 2,
      "byteOffset": 1307688,
      "componentType": 5126,
      "count": 65532,
      "max": [
        2.2220988273620605,
        -19.825828552246094,
        2.217496156692505
      ],
      "min": [
        -2.207510471343994,
        -42.233314514160156,
        -2.217496156692505
      ],
      "type": "VEC3"
    },
    {
      "bufferView": 2,
      "byteOffset": 2094072,
      "componentType": 5126,
      "count": 65532,
      "max": [
        1.0,
        0.605748176574707,
        1.0
      ],
      "min": [
        -1.0,
        -0.9996110200881958,
        -1.0
      ],
      "type": "VEC3"
    },
    {
      "bufferView": 1,
      "byteOffset": 435896,
      "componentType": 5126,
      "count": 65532,
      "max": [
        1.0000001192092896,
        1.000000238418579
      ],
      "min": [
        0.0,
        0.369791716337204
      ],
      "type": "VEC2"
    },
    {
      "bufferView": 0,
      "byteOffset": 980688,
      "componentType": 5125,
      "count": 363654,
      "type": "SCALAR"
    },
    {
      "bufferView": 2,
      "byteOffset": 2880456,
      "componentType": 5126,
      "count": 65532,
      "max": [
        2.2220988273620605,
        -1.08563232421875,
        2.217496156692505
      ],
      "min": [
        -2.2220988273620605,
        -42.27662658691406,
        -2.217496156692505
      ],
      "type": "VEC3"
    },
    {
      "bufferView": 2,
      "byteOffset": 3666840,
      "componentType": 5126,
      "count": 65532,
      "max": [
        1.0,
        0.605748176574707,
        1.0
      ],
      "min": [
        -1.0,
        -1.0,
        -1.0
      ],
      "type": "VEC3"
    },
    {
      "bufferView": 1,
      "byteOffset": 960152,
      "componentType": 5126,
      "count": 65532,
      "max": [
        1.0000001192092896,
        1.000000238418579
      ],
      "min": [
        0.0,
        0.010768597945570946
      ],
      "type": "VEC2"
    },
    {
      "bufferView": 0,
      "byteOffset": 2435304,
      "componentType": 5125,
      "count": 369288,
      "type": "SCALAR"
    },
    {
      "bufferView": 2,
      "byteOffset": 4453224,
      "componentType": 5126,
      "count": 31362,
      "max": [
        2.011000633239746,
        -1.08563232421875,
        2.0110018253326416
      ],
      "min": [
        -2.0110011100769043,
        -9.796899795532227,
        -2.010999917984009
      ],
      "type": "VEC3"
    },
    {
      "bufferView": 2,
      "byteOffset": 4829568,
      "componentType": 5126,
      "count": 31362,
      "max": [
        1.0,
        0.9986290335655212,
        1.0
      ],
      "min": [
        -1.0,
        -0.9986301064491272,
        -1.0
      ],
      "type": "VEC3"
    },
    {
      "bufferView": 1,
      "byteOffset": 1484408,
      "componentType": 5126,
      "count": 31362,
      "max": [
        0.9921875596046448,
        1.000000238418579
      ],
      "min": [
        0.0,
        0.01000000536441803
      ],
      "type": "VEC2"
    },
    {
      "bufferView": 0,
      "byteOffset": 3912456,
      "componentType": 5125,
      "count": 175218,
      "type": "SCALAR"
    }
  ],
  "asset": {
    "extras": {
      "author": "Ya (https://sketchfab.com/Yarik16)",
      "license": "CC-BY-4.0 (http://creativecommons.org/licenses/by/4.0/)",
      "source": "https://sketchfab.com/3d-models/plastic-bottle-2e5132fabf7943d9b39743a966e2a1a7",
      "title": "Plastic bottle"
    },
    "generator": "Sketchfab-12.66.0",
    "version": "2.0"
  },
  "bufferViews": [
    {
      "buffer": 0,
      "byteLength": 4613328,
      "name": "floatBufferViews",
      "target": 34963
    },
    {
      "buffer": 0,
      "byteLength": 1735304,
      "byteOffset": 4613328,
      "byteStride": 8,
      "name": "floatBufferViews",
      "target": 34962
    },
    {
      "buffer": 0,
      "byteLength": 5205912,
      "byteOffset": 6348632,
      "byteStride": 12,
      "name": "floatBufferViews",
      "target": 34962
    }
  ],
  "buffers": [
    {
      "byteLength": 11554544,
      "uri": "scene.bin"
    }
  ],
  "extensionsUsed": [
    "KHR_materials_clearcoat",
    "KHR_materials_transmission"
  ],
  "materials": [
    {
      "doubleSided": true,
      "name": "plastic",
      "pbrMetallicRoughness": {
        "baseColorFactor": [
          0.00148735,
          0.0989124,
          0.8,
          1.0
        ],
        "metallicFactor": 0.0,
        "roughnessFactor": 0.598901
      }
    },
    {
      "alphaMode": "BLEND",
      "doubleSided": true,
      "extensions": {
        "KHR_materials_clearcoat": {
          "clearcoatFactor": 1.0,
          "clearcoatRoughnessFactor": 0.04
        },
        "KHR_materials_transmission": {
          "transmissionFactor": 0.9416937861277278
        }
      },
      "name": "transparent_plastic",
      "pbrMetallicRoughness": {
        "baseColorFactor": [
          0.8,
          0.8,
          0.8,
          0.25
        ],
        "metallicFactor": 0.0,
        "roughnessFactor": 0.024
      }
    }
  ],
  "meshes": [
    {
      "name": "Object_0",
      "primitives": [
        {
          "attributes": {
            "NORMAL": 1,
            "POSITION": 0,
            "TEXCOORD_0": 2
          },
          "indices": 3,
          "material": 0,
          "mode": 4
        }
      ]
    },
    {
      "name": "Object_1",
      "primitives": [
        {
          "attributes": {
            "NORMAL": 5,
            "POSITION": 4,
            "TEXCOORD_0": 6
          },
          "indices": 7,
          "material": 1,
          "mode": 4
        }
      ]
    },
    {
      "name": "Object_2",
      "primitives": [
        {
          "attributes": {
            "NORMAL": 9,
            "POSITION": 8,
            "TEXCOORD_0": 10
          },
          "indices": 11,
          "material": 1,
          "mode": 4
        }
      ]
    },
    {
      "name": "Object_3",
      "primitives": [
        {
          "attributes": {
            "NORMAL": 13,
            "POSITION": 12,
            "TEXCOORD_0": 14
          },
          "indices": 15,
          "material": 1,
          "mode": 4
        }
      ]
    }
  ],
  "nodes": [
    {
      "children": [
        1
      ],
      "matrix": [
        1.0,
        0.0,
        0.0,
        0.0,
        0.0,
        2.220446049250313e-16,
        -1.0,
        0.0,
        0.0,
        1.0,
        2.220446049250313e-16,
        0.0,
        0.0,
        0.0,
        0.0,
        1.0
      ],
      "name": "Sketchfab_model"
    },
    {
      "children": [
        2
      ],
      "name": "root"
    },
    {
      "children": [
        3
      ],
      "matrix": [
        1.0,
        0.0,
        0.0,
        0.0,
        0.0,
        2.220446049250313e-16,
        1.0,
        0.0,
        0.0,
        -1.0,
        2.220446049250313e-16,
        0.0,
        0.0,
        0.0,
        0.0,
        1.0
      ],
      "name": "GLTF_SceneRootNode"
    },
    {
      "children": [
        4,
        5,
        6,
        7
      ],
      "matrix": [
        0.29683932662010193,
        0.0,
        0.0,
        0.0,
        0.0,
        0.11318643391132355,
        0.0,
        0.0,
        0.0,
        0.0,
        0.29683932662010193,
        0.0,
        0.0,
        4.0156354904174805,
        0.0,
        1.0
      ],
      "name": "plastic bottle_3"
    },
    {
      "mesh": 0,
      "name": "Object_4"
    },
    {
      "mesh": 1,
      "name": "Object_5"
    },
    {
      "mesh": 2,
      "name": "Object_6"
    },
    {
      "mesh": 3,
      "name": "Object_7"
    }
  ],
  "scene": 0,
  "scenes": [
    {
      "name": "Sketchfab_Scene",
      "nodes": [
        0
      ]
    }
  ]
}
