{
  "accessors": [
    {
      "bufferView": 2,
      "componentType": 5126,
      "count": 65532,
      "max": [
        29.135114669799805,
        17.621091842651367,
        90.76195526123047
      ],
      "min": [
        -27.648204803466797,
        -17.812992095947266,
        -92.41075134277344
      ],
      "type": "VEC3"
    },
    {
      "bufferView": 2,
      "byteOffset": 786384,
      "componentType": 5126,
      "count": 65532,
      "max": [
        0.999974250793457,
        0.9999862313270569,
        0.9988397359848022
      ],
      "min": [
        -0.9999843835830688,
        -0.9999926686286926,
        -1.0
      ],
      "type": "VEC3"
    },
    {
      "bufferView": 1,
      "componentType": 5126,
      "count": 65532,
      "max": [
        0.9847170114517212,
        0.9660369753837585
      ],
      "min": [
        0.010057000443339348,
        0.009999999776482582
      ],
      "type": "VEC2"
    },
    {
      "bufferView": 0,
      "componentType": 5125,
      "count": 304410,
      "type": "SCALAR"
    },
    {
      "bufferView": 2,
      "byteOffset": 1572768,
      "componentType": 5126,
      "count": 65532,
      "max": [
        27.254013061523438,
        17.481916427612305,
        92.2667236328125
      ],
      "min": [
        -28.759971618652344,
        -16.527774810791016,
        -92.41064453125
      ],
      "type": "VEC3"
    },
    {
      "bufferView": 2,
      "byteOffset": 2359152,
      "componentType": 5126,
      "count": 65532,
      "max": [
        0.999268651008606,
        0.9999899864196777,
        0.9999074935913086
      ],
      "min": [
        -0.9999822378158569,
        -0.9999763369560242,
        -1.0
      ],
      "type": "VEC3"
    },
    {
      "bufferView": 1,
      "byteOffset": 524256,
      "componentType": 5126,
      "count": 65532,
      "max": [
        0.9658229947090149,
        0.9721570014953613
      ],
      "min": [
        0.012822999618947506,
        0.016057999804615974
      ],
      "type": "VEC2"
    },
    {
      "bufferView": 0,
      "byteOffset": 1217640,
      "componentType": 5125,
      "count": 308169,
      "type": "SCALAR"
    },
    {
      "bufferView": 2,
      "byteOffset": 3145536,
      "componentType": 5126,
      "count": 65532,
      "max": [
        28.118927001953125,
        17.512537002563477,
        92.40159606933594
      ],
      "min": [
        -28.72967529296875,
        -16.861845016479492,
        -92.4105453491211
      ],
      "type": "VEC3"
    },
    {
      "bufferView": 2,
      "byteOffset": 3931920,
      "componentType": 5126,
      "count": 65532,
      "max": [
        0.999987781047821,
        0.999997615814209,
        0.9999889731407166
      ],
      "min": [
        -0.9999980926513672,
        -0.9999991059303284,
        -0.9999998807907104
      ],
      "type": "VEC3"
    },
    {
      "bufferView": 1,
      "byteOffset": 1048512,
      "componentType": 5126,
      "count": 65532,
      "max": [
        0.9768869876861572,
        0.9579470157623291
      ],
      "min": [
        0.021102000027894974,
        0.010172000154852867
      ],
      "type": "VEC2"
    },
    {
      "bufferView": 0,
      "byteOffset": 2450316,
      "componentType": 5125,
      "count": 308277,
      "type": "SCALAR"
    },
    {
      "bufferView": 2,
      "byteOffset": 4718304,
      "componentType": 5126,
      "count": 65532,
      "max": [
        27.181339263916016,
        17.916296005249023,
        92.3758773803711
      ],
      "min": [
        -28.568233489990234,
        -15.400626182556152,
        -92.41029357910156
      ],
      "type": "VEC3"
    },
    {
      "bufferView": 2,
      "byteOffset": 5504688,
      "componentType": 5126,
      "count": 65532,
      "max": [
        0.9999944567680359,
        0.9999997615814209,
        0.9999889731407166
      ],
      "min": [
        -0.9999784827232361,
        -0.9999974966049194,
        -0.9941235780715942
      ],
      "type": "VEC3"
    },
    {
      "bufferView": 1,
      "byteOffset": 1572768,
      "componentType": 5126,
      "count": 65532,
      "max": [
        0.9797930121421814,
        0.9715650081634521
      ],
      "min": [
        0.02555200085043907,
        0.01037800032645464
      ],
      "type": "VEC2"
    },
    {
      "bufferView": 0,
      "byteOffset": 3683424,
      "componentType": 5125,
      "count": 311787,
      "type": "SCALAR"
    },
    {
      "bufferView": 2,
      "byteOffset": 6291072,
      "componentType": 5126,
      "count": 65532,
      "max": [
        27.77088737487793,
        18.015722274780273,
        83.24871063232422
      ],
      "min": [
        -26.381132125854492,
        -17.246583938598633,
        -92.40713500976563
      ],
      "type": "VEC3"
    },
    {
      "bufferView": 2,
      "byteOffset": 7077456,
      "componentType": 5126,
      "count": 65532,
      "max": [
        0.9999738931655884,
        0.9999926686286926,
        0.9999733567237854
      ],
      "min": [
        -0.9999696612358093,
        -0.9999881386756897,
        -1.0
      ],
      "type": "VEC3"
    },
    {
      "bufferView": 1,
      "byteOffset": 2097024,
      "componentType": 5126,
      "count": 65532,
      "max": [
        0.9853929877281189,
        0.9618620276451111
      ],
      "min": [
        0.009999999776482582,
        0.011723999865353107
      ],
      "type": "VEC2"
    },
    {
      "bufferView": 0,
      "byteOffset": 4930572,
      "componentType": 5125,
      "count": 307533,
      "type": "SCALAR"
    },
    {
      "bufferView": 2,
      "byteOffset": 7863840,
      "componentType": 5126,
      "count": 65532,
      "max": [
        29.115907669067383,
        17.86160659790039,
        90.03683471679688
      ],
      "min": [
        -28.751476287841797,
        -18.01172637939453,
        -92.4095687866211
      ],
      "type": "VEC3"
    },
    {
      "bufferView": 2,
      "byteOffset": 8650224,
      "componentType": 5126,
      "count": 65532,
      "max": [
        0.9999956488609314,
        0.9999961256980896,
        0.9997239708900452
      ],
      "min": [
        -0.9999932646751404,
        -0.9999887347221375,
        -0.9999954700469971
      ],
      "type": "VEC3"
    },
    {
      "bufferView": 1,
      "byteOffset": 2621280,
      "componentType": 5126,
      "count": 65532,
      "max": [
        0.9784939885139465,
        0.9563590288162231
      ],
      "min": [
        0.009999999776482582,
        0.009999999776482582
      ],
      "type": "VEC2"
    },
    {
      "bufferView": 0,
      "byteOffset": 6160704,
      "componentType": 5125,
      "count": 301998,
      "type": "SCALAR"
    },
    {
      "bufferView": 2,
      "byteOffset": 9436608,
      "componentType": 5126,
      "count": 65532,
      "max": [
        29.076072692871094,
        18.015722274780273,
        92.23612213134766
      ],
      "min": [
        -27.543664932250977,
        -17.06961441040039,
        -92.40777587890625
      ],
      "type": "VEC3"
    },
    {
      "bufferView": 2,
      "byteOffset": 10222992,
      "componentType": 5126,
      "count": 65532,
      "max": [
        1.0,
        0.9999997615814209,
        0.9989218711853027
      ],
      "min": [
        -0.9999749064445496,
        -0.999987781047821,
        -0.999987006187439
      ],
      "type": "VEC3"
    },
    {
      "bufferView": 1,
      "byteOffset": 3145536,
      "componentType": 5126,
      "count": 65532,
      "max": [
        0.9772809743881226,
        0.9900000095367432
      ],
      "min": [
        0.009999999776482582,
        0.009999999776482582
      ],
      "type": "VEC2"
    },
    {
      "bufferView": 0,
      "byteOffset": 7368696,
      "componentType": 5125,
      "count": 295083,
      "type": "SCALAR"
    },
    {
      "bufferView": 2,
      "byteOffset": 11009376,
      "componentType": 5126,
      "count": 65532,
      "max": [
        29.1212215423584,
        17.924924850463867,
        91.14774322509766
      ],
      "min": [
        -28.41463279724121,
        -17.738842010498047,
        -92.41043853759766
      ],
      "type": "VEC3"
    },
    {
      "bufferView": 2,
      "byteOffset": 11795760,
      "componentType": 5126,
      "count": 65532,
      "max": [
        0.9999956488609314,
        0.999996542930603,
        0.9998247623443604
      ],
      "min": [
        -0.9999696612358093,
        -0.9999707341194153,
        -1.0
      ],
      "type": "VEC3"
    },
    {
      "bufferView": 1,
      "byteOffset": 3669792,
      "componentType": 5126,
      "count": 65532,
      "max": [
        0.9837819933891296,
        0.9686179757118225
      ],
      "min": [
        0.009999999776482582,
        0.009999999776482582
      ],
      "type": "VEC2"
    },
    {
      "bufferView": 0,
      "byteOffset": 8549028,
      "componentType": 5125,
      "count": 270819,
      "type": "SCALAR"
    },
    {
      "bufferView": 2,
      "byteOffset": 12582144,
      "componentType": 5126,
      "count": 65532,
      "max": [
        29.12525749206543,
        17.929664611816406,
        90.35962677001953
      ],
      "min": [
        -28.759801864624023,
        -17.71440315246582,
        -92.4100570678711
      ],
      "type": "VEC3"
    },
    {
      "bufferView": 2,
      "byteOffset": 13368528,
      "componentType": 5126,
      "count": 65532,
      "max": [
        0.9999918937683105,
        0.9999899864196777,
        0.9998247623443604
      ],
      "min": [
        -0.9999677538871765,
        -0.9999991059303284,
        -1.0
      ],
      "type": "VEC3"
    },
    {
      "bufferView": 1,
      "byteOffset": 4194048,
      "componentType": 5126,
      "count": 65532,
      "max": [
        0.9795460104942322,
        0.9736940264701843
      ],
      "min": [
        0.009999999776482582,
        0.009999999776482582
      ],
      "type": "VEC2"
    },
    {
      "bufferView": 0,
      "byteOffset": 9632304,
      "componentType": 5125,
      "count": 256638,
      "type": "SCALAR"
    },
    {
      "bufferView": 2,
      "byteOffset": 14154912,
      "componentType": 5126,
      "count": 65533,
      "max": [
        29.03160285949707,
        17.72659683227539,
        92.4091796875
      ],
      "min": [
        -29.133840560913086,
        -17.965320587158203,
        -92.41075134277344
      ],
      "type": "VEC3"
    },
    {
      "bufferView": 2,
      "byteOffset": 14941308,
      "componentType": 5126,
      "count": 65533,
      "max": [
        0.9999914765357971,
        0.999997615814209,
        0.9999665021896362
      ],
      "min": [
        -0.9999475479125977,
        -0.9999926686286926,
        -0.9999998807907104
      ],
      "type": "VEC3"
    },
    {
      "bufferView": 1,
      "byteOffset": 4718304,
      "componentType": 5126,
      "count": 65533,
      "max": [
        0.9850839972496033,
        0.9828979969024658
      ],
      "min": [
        0.009999999776482582,
        0.009999999776482582
      ],
      "type": "VEC2"
    },
    {
      "bufferView": 0,
      "byteOffset": 10658856,
      "componentType": 5125,
      "count": 225069,
      "type": "SCALAR"
    },
    {
      "bufferView": 2,
      "byteOffset": 15727704,
      "componentType": 5126,
      "count": 40588,
      "max": [
        29.135717391967773,
        17.656461715698242,
        92.23709106445313
      ],
      "min": [
        -29.133840560913086,
        -18.01172637939453,
        -92.41064453125
      ],
      "type": "VEC3"
    },
    {
      "bufferView": 2,
      "byteOffset": 16214760,
      "componentType": 5126,
      "count": 40588,
      "max": [
        0.9999589920043945,
        0.9999794960021973,
        0.9999889731407166
      ],
      "min": [
        -0.9999978542327881,
        -0.9999614953994751,
        -1.0
      ],
      "type": "VEC3"
    },
    {
      "bufferView": 1,
      "byteOffset": 5242568,
      "componentType": 5126,
      "count": 40588,
      "max": [
        0.9777730107307434,
        0.975163996219635
      ],
      "min": [
        0.009999999776482582,
        0.009999999776482582
      ],
      "type": "VEC2"
    },
    {
      "bufferView": 0,
      "byteOffset": 11559132,
      "componentType": 5125,
      "count": 110217,
      "type": "SCALAR"
    }
  ],
  "asset": {
    "extras": {
      "author": "3Dmyselfie (https://sketchfab.com/3Dmyselfie)",
      "license": "CC-BY-4.0 (http://creativecommons.org/licenses/by/4.0/)",
      "source": "https://sketchfab.com/3d-models/2103-208da4fde27e41e1999e31c2a26cb1cd",
      "title": "2103"
    },
    "generator": "Sketchfab-13.98.0",
    "version": "2.0"
  },
  "bufferViews": [
    {
      "buffer": 0,
      "byteLength": 12000000,
      "name": "floatBufferViews",
      "target": 34963
    },
    {
      "buffer": 0,
      "byteLength": 5567272,
      "byteOffset": 12000000,
      "byteStride": 8,
      "name": "floatBufferViews",
      "target": 34962
    },
    {
      "buffer": 0,
      "byteLength": 16701816,
      "byteOffset": 17567272,
      "byteStride": 12,
      "name": "floatBufferViews",
      "target": 34962
    }
  ],
  "buffers": [
    {
      "byteLength": 34269088,
      "uri": "scene.bin"
    }
  ],
  "images": [
    {
      "uri": "textures/2103-06-184mm_baseColor.jpeg"
    }
  ],
  "materials": [
    {
      "doubleSided": true,
      "name": "2103-06-184mm",
      "pbrMetallicRoughness": {
        "baseColorTexture": {
          "index": 0
        },
        "metallicFactor": 0.0
      }
    }
  ],
  "meshes": [
    {
      "name": "Object_0",
      "primitives": [
        {
          "attributes": {
            "NORMAL": 1,
            "POSITION": 0,
            "TEXCOORD_0": 2
          },
          "indices": 3,
          "material": 0,
          "mode": 4
        }
      ]
    },
    {
      "name": "Object_1",
      "primitives": [
        {
          "attributes": {
            "NORMAL": 5,
            "POSITION": 4,
            "TEXCOORD_0": 6
          },
          "indices": 7,
          "material": 0,
          "mode": 4
        }
      ]
    },
    {
      "name": "Object_2",
      "primitives": [
        {
          "attributes": {
            "NORMAL": 9,
            "POSITION": 8,
            "TEXCOORD_0": 10
          },
          "indices": 11,
          "material": 0,
          "mode": 4
        }
      ]
    },
    {
      "name": "Object_3",
      "primitives": [
        {
          "attributes": {
            "NORMAL": 13,
            "POSITION": 12,
            "TEXCOORD_0": 14
          },
          "indices": 15,
          "material": 0,
          "mode": 4
        }
      ]
    },
    {
      "name": "Object_4",
      "primitives": [
        {
          "attributes": {
            "NORMAL": 17,
            "POSITION": 16,
            "TEXCOORD_0": 18
          },
          "indices": 19,
          "material": 0,
          "mode": 4
        }
      ]
    },
    {
      "name": "Object_5",
      "primitives": [
        {
          "attributes": {
            "NORMAL": 21,
            "POSITION": 20,
            "TEXCOORD_0": 22
          },
          "indices": 23,
          "material": 0,
          "mode": 4
        }
      ]
    },
    {
      "name": "Object_6",
      "primitives": [
        {
          "attributes": {
            "NORMAL": 25,
            "POSITION": 24,
            "TEXCOORD_0": 26
          },
          "indices": 27,
          "material": 0,
          "mode": 4
        }
      ]
    },
    {
      "name": "Object_7",
      "primitives": [
        {
          "attributes": {
            "NORMAL": 29,
            "POSITION": 28,
            "TEXCOORD_0": 30
          },
          "indices": 31,
          "material": 0,
          "mode": 4
        }
      ]
    },
    {
      "name": "Object_8",
      "primitives": [
        {
          "attributes": {
            "NORMAL": 33,
            "POSITION": 32,
            "TEXCOORD_0": 34
          },
          "indices": 35,
          "material": 0,
          "mode": 4
        }
      ]
    },
    {
      "name": "Object_9",
      "primitives": [
        {
          "attributes": {
            "NORMAL": 37,
            "POSITION": 36,
            "TEXCOORD_0": 38
          },
          "indices": 39,
          "material": 0,
          "mode": 4
        }
      ]
    },
    {
      "name": "Object_10",
      "primitives": [
        {
          "attributes": {
            "NORMAL": 41,
            "POSITION": 40,
            "TEXCOORD_0": 42
          },
          "indices": 43,
          "material": 0,
          "mode": 4
        }
      ]
    }
  ],
  "nodes": [
    {
      "children": [
        1
      ],
      "matrix": [
        1.0,
        0.0,
        0.0,
        0.0,
        0.0,
        2.220446049250313e-16,
        -1.0,
        0.0,
        0.0,
        1.0,
        2.220446049250313e-16,
        0.0,
        0.0,
        0.0,
        0.0,
        1.0
      ],
      "name": "Sketchfab_model"
    },
    {
      "children": [
        2,
        3,
        4,
        5,
        6,
        7,
        8,
        9,
        10,
        11,
        12
      ],
      "name": "2103.obj.cleaner.materialmerger.gles"
    },
    {
      "mesh": 0,
      "name": "Object_2"
    },
    {
      "mesh": 1,
      "name": "Object_3"
    },
    {
      "mesh": 2,
      "name": "Object_4"
    },
    {
      "mesh": 3,
      "name": "Object_5"
    },
    {
      "mesh": 4,
      "name": "Object_6"
    },
    {
      "mesh": 5,
      "name": "Object_7"
    },
    {
      "mesh": 6,
      "name": "Object_8"
    },
    {
      "mesh": 7,
      "name": "Object_9"
    },
    {
      "mesh": 8,
      "name": "Object_10"
    },
    {
      "mesh": 9,
      "name": "Object_11"
    },
    {
      "mesh": 10,
      "name": "Object_12"
    }
  ],
  "samplers": [
    {
      "magFilter": 9729,
      "minFilter": 9987,
      "wrapS": 10497,
      "wrapT": 10497
    }
  ],
  "scene": 0,
  "scenes": [
    {
      "name": "Sketchfab_Scene",
      "nodes": [
        0
      ]
    }
  ],
  "textures": [
    {
      "sampler": 0,
      "source": 0
    }
  ]
}
