{
  "accessors": [
    {
      "bufferView": 2,
      "componentType": 5126,
      "count": 1545,
      "max": [
        0.05888983979821205,
        0.05888982489705086,
        0.3003653883934021
      ],
      "min": [
        -0.05888983979821205,
        -0.058889854699373245,
        -1.299142127209052e-06
      ],
      "type": "VEC3"
    },
    {
      "bufferView": 2,
      "byteOffset": 18540,
      "componentType": 5126,
      "count": 1545,
      "max": [
        0.9995779991149902,
        0.9995779991149902,
        1.0
      ],
      "min": [
        -0.9995779395103455,
        -0.9995779991149902,
        -1.0
      ],
      "type": "VEC3"
    },
    {
      "bufferView": 1,
      "componentType": 5126,
      "count": 1545,
      "max": [
        0.9922770261764526,
        0.9941832423210144
      ],
      "min": [
        0.0,
        0.0
      ],
      "type": "VEC2"
    },
    {
      "bufferView": 0,
      "componentType": 5125,
      "count": 6528,
      "type": "SCALAR"
    },
    {
      "bufferView": 2,
      "byteOffset": 37080,
      "componentType": 5126,
      "count": 228,
      "max": [
        0.021951911970973015,
        0.021951911970973015,
        0.3235798478126526
      ],
      "min": [
        -0.021951915696263313,
        -0.021951917558908463,
        0.2703613042831421
      ],
      "type": "VEC3"
    },
    {
      "bufferView": 2,
      "byteOffset": 39816,
      "componentType": 5126,
      "count": 228,
      "max": [
        0.8709031939506531,
        0.8709031939506531,
        1.0
      ],
      "min": [
        -0.8709031939506531,
        -0.8709031939506531,
        -1.0
      ],
      "type": "VEC3"
    },
    {
      "bufferView": 3,
      "componentType": 5126,
      "count": 228,
      "max": [
        0.9988306760787964,
        0.9999269247055054,
        0.8648311495780945,
        1.0
      ],
      "min": [
        -0.9999269247055054,
        -0.9999268651008606,
        -0.8647924661636353,
        1.0
      ],
      "type": "VEC4"
    },
    {
      "bufferView": 1,
      "byteOffset": 12360,
      "componentType": 5126,
      "count": 228,
      "max": [
        0.9753998517990112,
        0.8844265937805176
      ],
      "min": [
        0.02460014820098877,
        0.07943087816238403
      ],
      "type": "VEC2"
    },
    {
      "bufferView": 1,
      "byteOffset": 14184,
      "componentType": 5126,
      "count": 228,
      "max": [
        0.9753998517990112,
        0.8844265937805176
      ],
      "min": [
        0.02460014820098877,
        0.07943087816238403
      ],
      "type": "VEC2"
    },
    {
      "bufferView": 0,
      "byteOffset": 26112,
      "componentType": 5125,
      "count": 960,
      "type": "SCALAR"
    }
  ],
  "asset": {
    "extras": {
      "author": "Aullwen (https://sketchfab.com/Aullwen)",
      "license": "CC-BY-4.0 (http://creativecommons.org/licenses/by/4.0/)",
      "source": "https://sketchfab.com/3d-models/glass-bottle-00beb4f7241e496e8a2ebb47fdb4f93c",
      "title": "Glass Bottle"
    },
    "generator": "Sketchfab-12.68.0",
    "version": "2.0"
  },
  "bufferViews": [
    {
      "buffer": 0,
      "byteLength": 29952,
      "name": "floatBufferViews",
      "target": 34963
    },
    {
      "buffer": 0,
      "byteLength": 16008,
      "byteOffset": 29952,
      "byteStride": 8,
      "name": "floatBufferViews",
      "target": 34962
    },
    {
      "buffer": 0,
      "byteLength": 42552,
      "byteOffset": 45960,
      "byteStride": 12,
      "name": "floatBufferViews",
      "target": 34962
    },
    {
      "buffer": 0,
      "byteLength": 3648,
      "byteOffset": 88512,
      "byteStride": 16,
      "name": "floatBufferViews",
      "target": 34962
    }
  ],
  "buffers": [
    {
      "byteLength": 92160,
      "uri": "scene.bin"
    }
  ],
  "extensionsUsed": [
    "KHR_materials_transmission"
  ],
  "images": [
    {
      "uri": "textures/Glass_baseColor.png"
    },
    {
      "uri": "textures/Bouchon_baseColor.png"
    },
    {
      "uri": "textures/Bouchon_normal.png"
    }
  ],
  "materials": [
    {
      "alphaMode": "BLEND",
      "doubleSided": true,
      "extensions": {
        "KHR_materials_transmission": {
          "transmissionFactor": 1.0
        }
      },
      "name": "Glass",
      "pbrMetallicRoughness": {
        "baseColorFactor": [
          1.0,
          1.0,
          1.0,
          0.25
        ],
        "baseColorTexture": {
          "index": 0
        },
        "metallicFactor": 0.0,
        "roughnessFactor": 0.0
      }
    },
    {
      "doubleSided": true,
      "name": "Bouchon",
      "normalTexture": {
        "index": 2,
        "scale": 0.4
      },
      "pbrMetallicRoughness": {
        "baseColorTexture": {
          "index": 1
        },
        "metallicFactor": 0.0,
        "roughnessFactor": 0.46380320911539563
      }
    }
  ],
  "meshes": [
    {
      "name": "Bottle_Glass_0",
      "primitives": [
        {
          "attributes": {
            "NORMAL": 1,
            "POSITION": 0,
            "TEXCOORD_0": 2
          },
          "indices": 3,
          "material": 0,
          "mode": 4
        }
      ]
    },
    {
      "name": "Cork_Bouchon_0",
      "primitives": [
        {
          "attributes": {
            "NORMAL": 5,
            "POSITION": 4,
            "TANGENT": 6,
            "TEXCOORD_0": 7,
            "TEXCOORD_1": 8
          },
          "indices": 9,
          "material": 1,
          "mode": 4
        }
      ]
    }
  ],
  "nodes": [
    {
      "children": [
        1
      ],
      "matrix": [
        0.007393787149339914,
        0.0,
        0.0,
        0.0,
        0.0,
        1.6417505464749547e-18,
        -0.007393787149339914,
        0.0,
        0.0,
        0.007393787149339914,
        1.6417505464749547e-18,
        0.0,
        0.0,
        0.0,
        0.0,
        1.0
      ],
      "name": "Sketchfab_model"
    },
    {
      "children": [
        2
      ],
      "matrix": [
        1.0,
        0.0,
        0.0,
        0.0,
        0.0,
        0.0,
        1.0,
        0.0,
        0.0,
        -1.0,
        0.0,
        0.0,
        0.0,
        0.0,
        0.0,
        1.0
      ],
      "name": "1c8cbc6ecb524c22bb4ac6e78fce0176.fbx"
    },
    {
      "children": [
        3
      ],
      "name": "RootNode"
    },
    {
      "children": [
        4,
        5
      ],
      "matrix": [
        100.0,
        0.0,
        0.0,
        0.0,
        0.0,
        -1.629206793918314e-05,
        -99.99999999999868,
        0.0,
        0.0,
        99.99999999999868,
        -1.629206793918314e-05,
        0.0,
        0.0,
        0.0,
        0.0,
        1.0
      ],
      "name": "Bottle"
    },
    {
      "mesh": 0,
      "name": "Bottle_Glass_0"
    },
    {
      "children": [
        6
      ],
      "matrix": [
        1.0,
        0.0,
        0.0,
        0.0,
        0.0,
        1.0,
        -2.646977960169688e-23,
        0.0,
        0.0,
        2.646977960169688e-23,
        1.0,
        0.0,
        0.0,
        0.0,
        0.0,
        1.0
      ],
      "name": "Cork"
    },
    {
      "mesh": 1,
      "name": "Cork_Bouchon_0"
    }
  ],
  "samplers": [
    {
      "magFilter": 9729,
      "minFilter": 9987,
      "wrapS": 10497,
      "wrapT": 10497
    }
  ],
  "scene": 0,
  "scenes": [
    {
      "name": "Sketchfab_Scene",
      "nodes": [
        0
      ]
    }
  ],
  "textures": [
    {
      "sampler": 0,
      "source": 0
    },
    {
      "sampler": 0,
      "source": 1
    },
    {
      "sampler": 0,
      "source": 2
    }
  ]
}
