{
  "accessors": [
    {
      "bufferView": 2,
      "componentType": 5126,
      "count": 8994,
      "max": [
        0.6808693408966064,
        0.7031049132347107,
        0.2199999988079071
      ],
      "min": [
        -0.6311389207839966,
        -0.7319193482398987,
        -0.1291491985321045
      ],
      "type": "VEC3"
    },
    {
      "bufferView": 2,
      "byteOffset": 107928,
      "componentType": 5126,
      "count": 8994,
      "max": [
        0.9999998807907104,
        0.9999997615814209,
        0.9999766945838928
      ],
      "min": [
        -0.9999985694885254,
        -0.9998588562011719,
        -1.0
      ],
      "type": "VEC3"
    },
    {
      "bufferView": 1,
      "componentType": 5126,
      "count": 8994,
      "max": [
        1.0,
        1.0
      ],
      "min": [
        0.0,
        0.0
      ],
      "type": "VEC2"
    },
    {
      "bufferView": 0,
      "componentType": 5125,
      "count": 45834,
      "type": "SCALAR"
    },
    {
      "bufferView": 2,
      "byteOffset": 215856,
      "componentType": 5126,
      "count": 22360,
      "max": [
        4.272846221923828,
        2.029653549194336,
        1.7579487562179565
      ],
      "min": [
        -4.160220623016357,
        -8.283055305480957,
        -1.1565665006637573
      ],
      "type": "VEC3"
    },
    {
      "bufferView": 2,
      "byteOffset": 484176,
      "componentType": 5126,
      "count": 22360,
      "max": [
        0.999993622303009,
        0.9997881650924683,
        0.9999557733535767
      ],
      "min": [
        -0.9999193549156189,
        -0.9998863935470581,
        -0.9999412894248962
      ],
      "type": "VEC3"
    },
    {
      "bufferView": 1,
      "byteOffset": 71952,
      "componentType": 5126,
      "count": 22360,
      "max": [
        0.888256311416626,
        0.7838299870491028
      ],
      "min": [
        0.10424989461898804,
        0.2523743510246277
      ],
      "type": "VEC2"
    },
    {
      "bufferView": 0,
      "byteOffset": 183336,
      "componentType": 5125,
      "count": 98592,
      "type": "SCALAR"
    }
  ],
  "asset": {
    "extras": {
      "author": "Duznot (https://sketchfab.com/duz_vr)",
      "license": "CC-BY-4.0 (http://creativecommons.org/licenses/by/4.0/)",
      "source": "https://sketchfab.com/3d-models/frozen-lake-d82cf40c635a4039bbb49246ef806537",
      "title": "Frozen Lake"
    },
    "generator": "Sketchfab-14.54.0",
    "version": "2.0"
  },
  "bufferViews": [
    {
      "buffer": 0,
      "byteLength": 577704,
      "name": "floatBufferViews",
      "target": 34963
    },
    {
      "buffer": 0,
      "byteLength": 250832,
      "byteOffset": 577704,
      "byteStride": 8,
      "name": "floatBufferViews",
      "target": 34962
    },
    {
      "buffer": 0,
      "byteLength": 752496,
      "byteOffset": 828536,
      "byteStride": 12,
      "name": "floatBufferViews",
      "target": 34962
    }
  ],
  "buffers": [
    {
      "byteLength": 1581032,
      "uri": "scene.bin"
    }
  ],
  "extensionsUsed": [
    "KHR_materials_clearcoat",
    "KHR_materials_transmission"
  ],
  "images": [
    {
      "uri": "textures/material_metallicRoughness.png"
    },
    {
      "uri": "textures/material_clearcoat_normal.png"
    },
    {
      "uri": "textures/hecht-susswasserfisch-fisch-vintage_baseColor.jpeg"
    }
  ],
  "materials": [
    {
      "alphaMode": "BLEND",
      "doubleSided": true,
      "extensions": {
        "KHR_materials_clearcoat": {
          "clearcoatFactor": 0.7162331488442673,
          "clearcoatNormalTexture": {
            "index": 1,
            "scale": 0.09917074368612931
          },
          "clearcoatRoughnessFactor": 0.4014053911105234
        },
        "KHR_materials_transmission": {
          "transmissionFactor": 0.7686015980656983
        }
      },
      "name": "material",
      "occlusionTexture": {
        "index": 0
      },
      "pbrMetallicRoughness": {
        "baseColorFactor": [
          0.07300370000000006,
          0.07392149999999995,
          0.8000100000000001,
          0.25
        ],
        "metallicFactor": 0.218805291624952,
        "metallicRoughnessTexture": {
          "index": 0
        }
      }
    },
    {
      "doubleSided": true,
      "name": "hecht-susswasserfisch-fisch-vintage",
      "pbrMetallicRoughness": {
        "baseColorTexture": {
          "index": 2
        },
        "metallicFactor": 0.0,
        "roughnessFactor": 0.8211145618000169
      }
    }
  ],
  "meshes": [
    {
      "name": "Splat_Ice_0",
      "primitives": [
        {
          "attributes": {
            "NORMAL": 1,
            "POSITION": 0,
            "TEXCOORD_0": 2
          },
          "indices": 3,
          "material": 0,
          "mode": 4
        }
      ]
    },
    {
      "name": "Fish_hecht-susswasserfisch-fisch-vintage_0",
      "primitives": [
        {
          "attributes": {
            "NORMAL": 5,
            "POSITION": 4,
            "TEXCOORD_0": 6
          },
          "indices": 7,
          "material": 1,
          "mode": 4
        }
      ]
    }
  ],
  "nodes": [
    {
      "children": [
        1
      ],
      "matrix": [
        1.0,
        0.0,
        0.0,
        0.0,
        0.0,
        2.220446049250313e-16,
        -1.0,
        0.0,
        0.0,
        1.0,
        2.220446049250313e-16,
        0.0,
        0.0,
        0.0,
        0.0,
        1.0
      ],
      "name": "Sketchfab_model"
    },
    {
      "children": [
        2
      ],
      "matrix": [
        0.009999999776482582,
        0.0,
        0.0,
        0.0,
        0.0,
        0.0,
        0.009999999776482582,
        0.0,
        0.0,
        -0.009999999776482582,
        0.0,
        0.0,
        0.0,
        0.0,
        0.0,
        1.0
      ],
      "name": "lake.fbx"
    },
    {
      "children": [
        3,
        5
      ],
      "name": "RootNode"
    },
    {
      "children": [
        4
      ],
      "matrix": [
        968.4773559570313,
        0.0,
        0.0,
        0.0,
        -0.0,
        -0.00017704418399106274,
        -1086.6894531249857,
        0.0,
        0.0,
        1086.6894531249857,
        -0.00017704418399106274,
        0.0,
        -48.929744720458984,
        66.29261016845703,
        0.0,
        1.0
      ],
      "name": "Splat"
    },
    {
      "mesh": 0,
      "name": "Splat_Ice_0"
    },
    {
      "children": [
        6
      ],
      "matrix": [
        100.0,
        0.0,
        0.0,
        0.0,
        -0.0,
        -1.629206793918314e-05,
        -99.99999999999868,
        0.0,
        0.0,
        99.99999999999868,
        -1.629206793918314e-05,
        0.0,
        -44.46428298950195,
        100.0,
        -280.2030334472656,
        1.0
      ],
      "name": "Fish"
    },
    {
      "mesh": 1,
      "name": "Fish_hecht-susswasserfisch-fisch-vintage_0"
    }
  ],
  "samplers": [
    {
      "magFilter": 9729,
      "minFilter": 9987,
      "wrapS": 10497,
      "wrapT": 10497
    },
    {
      "magFilter": 9729,
      "minFilter": 9987,
      "wrapS": 33071,
      "wrapT": 33071
    }
  ],
  "scene": 0,
  "scenes": [
    {
      "name": "Sketchfab_Scene",
      "nodes": [
        0
      ]
    }
  ],
  "textures": [
    {
      "sampler": 0,
      "source": 0
    },
    {
      "sampler": 0,
      "source": 1
    },
    {
      "sampler": 1,
      "source": 2
    }
  ]
}
